<?xml version="1.0" encoding="UTF-8"?>
<svg xmlns="http://www.w3.org/2000/svg" width="93" height="44" viewBox="0 0 93 44" fill="none">
  <g clip-path="url(#clip0_539_9286)">
    <path d="M68.7455 0H87.6632C89.9918 0 92.7587 2.78842 92.9121 5.15411C93.0289 13.6647 93.0289 22.2047 92.9121 30.714C92.5343 33.4731 90.1506 35.6974 87.4139 35.8721C83.0899 36.1468 78.4824 35.6601 74.1282 35.8681C71.7668 35.8228 68.7441 33.093 68.7441 30.658V0H68.7455ZM78.615 7.94654C77.6979 8.05722 76.9226 8.73732 76.8045 9.68813L76.8189 26.36C77.0367 27.1814 77.7176 27.8109 78.552 27.9256C79.3391 28.0322 82.733 28.0429 83.427 27.8589C84.327 27.6202 84.8754 26.7774 84.9239 25.8626C84.8662 20.3991 85.0459 14.9103 84.8321 9.46143C84.6484 8.67065 83.9426 8.07989 83.1647 7.9572C82.2555 7.81452 79.5517 7.83319 78.615 7.94654Z" fill="#D32F2F"></path>
    <path d="M64.6536 35.8694H56.5958V9.62279C56.5958 8.91735 55.4899 7.92787 54.8011 7.92787H48.4738V35.8681H40.416V0H59.3338C61.6768 0 64.6536 2.94311 64.6536 5.33814V35.8681V35.8694Z" fill="#D32F2F"></path>
    <path d="M36.324 35.8694H28.2662V9.49477C28.2662 8.87601 27.1236 7.92787 26.5345 7.92787H20.2072V35.8681H12.1494V0H31.0672C33.2712 0 36.324 2.87644 36.324 5.14745V35.8694Z" fill="#D32F2F"></path>
    <path d="M8.05775 11.9561V35.869H5.25682C2.94786 35.869 0 32.8832 0 30.5309V11.9561H8.05775Z" fill="#D32F2F"></path>
    <path d="M8.05775 0V7.92787H0V5.33814C0 2.94178 2.97672 0 5.3198 0H8.05775Z" fill="#D32F2F"></path>
    <path d="M70.0048 43.2853L70.8182 39.9248L71.3232 39.9008L72.05 43.2226L72.7034 39.9341L73.0891 39.8981L72.2704 43.8614C72.1327 43.8347 71.8664 43.9441 71.8113 43.7841L71.0438 40.4089L70.2645 43.8254L69.8198 43.8601L68.9985 39.8995C69.1481 39.9088 69.3646 39.8381 69.4275 40.0075L70.0061 43.288L70.0048 43.2853Z" fill="#D32F2F"></path>
    <path d="M82.5635 39.8967C83.1118 39.9527 83.4647 40.1367 83.5736 40.7248C83.6445 41.1088 83.5093 41.6969 83.1564 41.9063C83.0174 41.989 82.8324 41.969 82.7222 42.1023C83.3034 42.5091 83.4687 43.2838 83.8544 43.8599L83.2981 43.8506C83.104 43.4585 82.6632 42.345 82.2801 42.1677C82.0715 42.0716 81.6976 42.1677 81.4628 42.1343V43.8613H81.022V39.8967C81.5179 39.9327 82.0754 39.8473 82.5648 39.8967H82.5635ZM81.4615 41.6876H82.4375C82.4782 41.6876 82.8298 41.5929 82.8823 41.5636C83.163 41.4049 83.2234 40.9328 83.0843 40.6474C83.041 40.5594 82.8232 40.3447 82.7524 40.3447H81.4615V41.6876Z" fill="#D32F2F"></path>
    <path d="M12.9997 39.8965C14.0413 40.0272 14.1227 41.27 13.4759 41.9101C13.9718 42.3129 13.7921 42.8529 13.8524 43.377C13.8708 43.5304 14.023 43.6744 13.9744 43.8598L13.5271 43.8224C13.4182 43.5597 13.468 42.1968 13.1243 42.1968H11.8334V43.8598H11.4556V39.8952C11.9436 39.9392 12.5221 39.8351 12.9984 39.8952L12.9997 39.8965ZM11.8347 41.7514H12.9367C13.4641 41.7514 13.6202 40.9046 13.3749 40.5393C13.3513 40.5032 13.081 40.3446 13.0627 40.3446H11.8347V41.7514Z" fill="#D32F2F"></path>
    <path d="M76.7258 39.8502C78.9089 39.5648 78.9797 43.6681 77.2073 43.9201C74.9285 44.2442 74.8472 40.0955 76.7258 39.8502ZM76.7245 40.2956C75.7445 40.4502 75.6396 42.1238 75.9925 42.8626C76.3939 43.7014 77.408 43.7267 77.8449 42.9053C78.3106 42.0291 78.0443 40.0862 76.7245 40.2956Z" fill="#D32F2F"></path>
    <path d="M86.6871 39.8968V41.8145L88.2613 39.9288L88.8281 39.8968L87.5162 41.5144L88.8911 43.8601C88.7507 43.8334 88.4411 43.9081 88.3374 43.8468C88.2128 43.7734 87.4322 42.1292 87.2538 41.8785C87.2105 41.8478 86.6884 42.4399 86.6884 42.4852V43.8601H86.2476V39.8955H86.6884L86.6871 39.8968Z" fill="#D32F2F"></path>
    <path d="M19.0121 39.8965V40.3446H17.1859V41.6234H18.9491V42.0701H17.1859V43.477H19.0751V43.8611H16.8081V39.8965H19.0121Z" fill="#D32F2F"></path>
    <path d="M23.2218 39.9047L24.3632 43.8599L23.9316 43.8519L23.6154 42.7477L22.3455 42.7384L22.028 43.8546L21.5938 43.8599L22.7325 39.9033H23.2218V39.9047ZM22.474 42.2623H23.4186L23.0093 40.5994C22.8742 40.5728 22.9267 40.6568 22.8991 40.7394C22.7364 41.2355 22.5934 41.7529 22.4754 42.261L22.474 42.2623Z" fill="#D32F2F"></path>
    <path d="M59.7431 43.8613L59.3115 43.8533L59.0215 42.7731L57.7254 42.7384L57.4079 43.8546L56.9736 43.8599L58.1137 39.9033L58.6437 39.9593L59.7431 43.8613ZM58.8615 42.2623L58.3892 40.5354L57.8539 42.2623H58.8615Z" fill="#D32F2F"></path>
    <path d="M8.5614 41.1117C7.94349 41.2464 8.07337 40.4036 7.44365 40.2929C6.15142 40.0662 5.94283 42.756 6.79688 43.3854C7.56697 43.9522 8.09698 43.1814 8.25572 42.4639C8.36461 42.4679 8.64143 42.3719 8.62175 42.5466C8.55746 43.1147 8.12191 43.8988 7.51712 43.9828C6.04515 44.1882 5.7749 42.4066 5.93364 41.2878C6.18684 39.5088 8.18094 39.3408 8.5614 41.1104V41.1117Z" fill="#D32F2F"></path>
    <path d="M35.4399 39.9L36.3242 43.2218L37.274 39.904L37.7082 39.8986L36.5341 43.8645L36.1011 43.7992L35.007 39.9853C34.9663 39.8119 35.3363 39.9226 35.4386 39.9H35.4399Z" fill="#D32F2F"></path>
    <path d="M49.5441 42.359L48.2847 39.8986C48.4067 39.9226 48.694 39.8546 48.7779 39.908C48.875 39.9693 49.5205 41.5989 49.7002 41.8149C49.8498 41.8149 50.5005 39.9867 50.6225 39.908C50.7065 39.8546 50.9938 39.9213 51.1158 39.8986L49.9193 42.295V43.8619H49.5415V42.359H49.5441Z" fill="#D32F2F"></path>
    <path d="M63.394 39.8965V40.3446H62.3878V43.8611H61.947V40.3446H60.9395V39.8965H63.394Z" fill="#D32F2F"></path>
    <path d="M29.2108 39.8965V40.3446H28.1402V43.8611H27.7624V40.3446H26.6919V39.8965H29.2108Z" fill="#D32F2F"></path>
    <path d="M45.956 39.8965V40.3446H44.8855V43.8611H44.5077V40.3446H43.4385V39.8965H45.956Z" fill="#D32F2F"></path>
    <path d="M32.2953 39.8965H31.9175V43.8611H32.2953V39.8965Z" fill="#D32F2F"></path>
    <path d="M40.7938 39.8965H40.416V43.8611H40.7938V39.8965Z" fill="#D32F2F"></path>
  </g>
  <defs>
    <clipPath id="clip0_539_9286">
      <rect width="93" height="44" fill="white"></rect>
    </clipPath>
  </defs>
</svg>
